<svg xmlns="http://www.w3.org/2000/svg" viewBox="0 0 212.45 87.51"><defs><style>.cls-1{fill:#fcfaf2;}.cls-2{fill:#8dc8c4;opacity:0.32;}.cls-3{fill:#fff;}.cls-4{fill:#1d1d1b;stroke:#1d1d1b;stroke-miterlimit:10;}</style></defs><g id="Capa_2" data-name="Capa 2"><g id="Capa_1-2" data-name="Capa 1"><path class="cls-1" d="M57.66,63.14,71.75,50H67.81L56.09,61V53.93c-1,.75-2,1.46-3,2.12V79.31h3V65.65L68.94,79.31h3.9Z"/><path class="cls-1" d="M76.76,57.62h2.79v3.89a11.68,11.68,0,0,1,3.71-3.34,9.1,9.1,0,0,1,4.43-1.11A7.69,7.69,0,0,1,92,58.3a7.31,7.31,0,0,1,2.78,3.33,17.54,17.54,0,0,1,.9,6.52V79.31H92.89V69a26.18,26.18,0,0,0-.31-5,5.6,5.6,0,0,0-1.86-3.24,5.66,5.66,0,0,0-3.59-1.08,6.87,6.87,0,0,0-4.54,1.67A7.92,7.92,0,0,0,80,65.46a29.17,29.17,0,0,0-.4,5.9v8H76.76Z"/><path class="cls-2" d="M117.31,57.62h5.44V79.31h-5.44V77a10.53,10.53,0,0,1-3.2,2.18,8.83,8.83,0,0,1-3.47.67,9.66,9.66,0,0,1-7.27-3.26,11.38,11.38,0,0,1-3.07-8.1,11.66,11.66,0,0,1,3-8.24,9.46,9.46,0,0,1,7.21-3.21,9.17,9.17,0,0,1,3.66.74A9.93,9.93,0,0,1,117.31,60Zm-5.72,4.47a5.47,5.47,0,0,0-4.19,1.78,6.41,6.41,0,0,0-1.67,4.58,6.5,6.5,0,0,0,1.69,4.62,5.53,5.53,0,0,0,4.19,1.82,5.61,5.61,0,0,0,4.25-1.79,6.55,6.55,0,0,0,1.69-4.67,6.37,6.37,0,0,0-1.69-4.59A5.68,5.68,0,0,0,111.59,62.09Z"/><path class="cls-2" d="M127,57.62h4.66v2.73a6,6,0,0,1,2-2.45,4.87,4.87,0,0,1,2.76-.84,5.12,5.12,0,0,1,2.21.56l-1.7,4.69a3.69,3.69,0,0,0-1.57-.48,2.48,2.48,0,0,0-2.12,1.55q-.87,1.56-.87,6.1l0,1.06v8.77H127Z"/><path class="cls-2" d="M142,49.63h5.44v8h3.23v4.69h-3.23v17H142v-17h-2.79V57.62H142Z"/><path class="cls-2" d="M166.83,60.65,163.46,64c-1.37-1.35-2.62-2-3.73-2a2.37,2.37,0,0,0-1.44.39,1.18,1.18,0,0,0-.52,1,1.17,1.17,0,0,0,.33.81,6.1,6.1,0,0,0,1.63,1l2,1a11.93,11.93,0,0,1,4.33,3.17,6.63,6.63,0,0,1-1,8.62,8.11,8.11,0,0,1-5.69,1.93,9.07,9.07,0,0,1-7.58-3.71l3.35-3.65a7.71,7.71,0,0,0,2.25,1.81,4.9,4.9,0,0,0,2.28.69,2.74,2.74,0,0,0,1.73-.52,1.52,1.52,0,0,0,.66-1.2c0-.84-.79-1.65-2.37-2.45l-1.84-.92c-3.5-1.76-5.26-4-5.26-6.64a5.73,5.73,0,0,1,2-4.39,7.18,7.18,0,0,1,5.07-1.83,8.82,8.82,0,0,1,4,.93A9,9,0,0,1,166.83,60.65Z"/><path class="cls-1" d="M172.84,48.69a2.21,2.21,0,0,1,1.62.68,2.24,2.24,0,0,1,.68,1.63,2.32,2.32,0,0,1-2.3,2.3,2.19,2.19,0,0,1-1.61-.68,2.21,2.21,0,0,1-.68-1.62,2.24,2.24,0,0,1,.68-1.63A2.19,2.19,0,0,1,172.84,48.69Zm-1.39,8.93h2.79V79.31h-2.79Z"/><path class="cls-1" d="M180,57.62h2.79v3.75a10.79,10.79,0,0,1,3-3,8.49,8.49,0,0,1,4.45-1.28,7.41,7.41,0,0,1,3,.62,6.43,6.43,0,0,1,2.32,1.65,8.91,8.91,0,0,1,1.55,2.94,10.32,10.32,0,0,1,3.48-3.88,8.27,8.27,0,0,1,4.5-1.33,7,7,0,0,1,4,1.14,6.82,6.82,0,0,1,2.56,3.17,16.88,16.88,0,0,1,.83,6.1V79.31H209.6V67.47a15.51,15.51,0,0,0-.49-4.79,4.33,4.33,0,0,0-1.7-2.11,5.08,5.08,0,0,0-2.87-.79A6.24,6.24,0,0,0,200.83,61a6.84,6.84,0,0,0-2.45,3.19,20.11,20.11,0,0,0-.78,6.66v8.49h-2.79V68.21a18.8,18.8,0,0,0-.49-5.33,4.46,4.46,0,0,0-1.7-2.26,5,5,0,0,0-2.89-.84,6.21,6.21,0,0,0-3.62,1.16,7,7,0,0,0-2.49,3.14,16.89,16.89,0,0,0-.81,6v9.19H180Z"/><path class="cls-3" d="M62.11,48.65l-2.48,2.28C45.71,63.69,26.25,76.27,22.86,78.6S.64,92.61,0,84.93c-.51-6.28,12.8-19.8,17.64-24.5a2.08,2.08,0,0,1,3.13.27h0a2.08,2.08,0,0,1-.19,2.69C16.2,67.85,1.83,82.74,3.76,84.22c1,.74,12.18-4.66,24.37-12.32C42.75,62.71,59,51,62.11,48.65Z"/><path class="cls-3" d="M62.66,48.25l-.54.4h0C70.87,40.44,79.71,32.23,87.38,23A88.72,88.72,0,0,0,96.74,9.48c1-1.85,4-7.46.53-8.09a7.49,7.49,0,0,0-2.73.14,24.61,24.61,0,0,0-5.47,2,28.54,28.54,0,0,0-4.39,2.61c-.18.15-5.17,3.7-5.53,3.94-3,2.17-6.1,4.34-9.06,6.62l-.55.45-1.26-1.5c.3-.24.92-.71,1.23-.94,2.84-2.07,5.76-4.06,8.66-6l5-3.37A24.62,24.62,0,0,1,85.71,3.6,29.19,29.19,0,0,1,94.28.2c4.39-.86,6.93,1,5.36,5.63a27,27,0,0,1-2.74,5.48,90.86,90.86,0,0,1-9,12.14c-7.88,9.13-16.89,17.17-25.83,25.21h0l.54-.39Z"/><path class="cls-3" d="M24.82,64.48c1.12.74,1.93,1.45,3.25,1.22C30,65.32,31.72,64,33.3,62.84c6.36-4.6,12.62-9.38,18.64-14.41,6.48-5.53,13-11.21,18-18.08a24.45,24.45,0,0,0,2.18-3.58,9.5,9.5,0,0,0,1.1-3.87l.14.37L61.64,9.92l-7-7.1a2.19,2.19,0,0,0-3.06-.63,15,15,0,0,0-1.95,1.52c-6.09,4.72-12.24,9.35-18.1,14.37-6.07,5.13-12.06,10.63-17.76,16.18-.91.88-3,3-3.94,3.91,1.5-1.53,3.7-3.79,5.2-5.26A327,327,0,0,1,42.69,8.35c2.51-2,5.14-3.92,7.56-6,1.63-1.5,3.64-1.65,4.91,0l7.12,7,12,13.22.14.16v.21C74.06,33.72,48.26,53.6,39.53,60.43c-1.64,1.28-3.48,2.63-5.15,3.89A24.15,24.15,0,0,1,30.14,67a6,6,0,0,1-3.09.61,7.52,7.52,0,0,1-3.3-1.51l1.07-1.64Z"/><path class="cls-3" d="M33.74,57.82a.52.52,0,0,1-.62.5c-1.84-.35-6.73-1-9.2,1.26A27.83,27.83,0,0,0,20.69,63a.53.53,0,0,1-.81,0L19,62l-.81-1.07a.52.52,0,0,1,.18-.79,27.4,27.4,0,0,0,3.93-2.55c2.7-2,3-6.93,2.95-8.79a.53.53,0,0,1,.62-.52c3.27.46,14.38-4.07,14.54-4.13L30.7,52.3l9.82-8C40.42,44.47,33.91,54.52,33.74,57.82Z"/><path class="cls-3" d="M20.27,63.28a.68.68,0,0,1-.48-.21l-.89-1L18.08,61a.62.62,0,0,1-.11-.54A.61.61,0,0,1,18.3,60a27.69,27.69,0,0,0,3.91-2.53c2.64-2,2.92-6.75,2.91-8.71a.62.62,0,0,1,.22-.48.65.65,0,0,1,.52-.15c3.09.43,13.31-3.65,14.47-4.11l.66-.28-.37.59c-.07.1-6.61,10.2-6.77,13.45h0a.66.66,0,0,1-.25.49.6.6,0,0,1-.5.12c-1.94-.37-6.69-1-9.11,1.23A28.83,28.83,0,0,0,20.77,63a.63.63,0,0,1-.47.25Zm5.5-14.9a.44.44,0,0,0-.29.11.41.41,0,0,0-.14.31c0,2-.28,6.87-3,8.88a28.23,28.23,0,0,1-3.94,2.56.4.4,0,0,0-.22.27.43.43,0,0,0,.07.35l.82,1.08.89,1a.38.38,0,0,0,.33.14.4.4,0,0,0,.31-.16,27.68,27.68,0,0,1,3.25-3.4c2.49-2.3,7.32-1.66,9.29-1.28a.43.43,0,0,0,.33-.08.42.42,0,0,0,.16-.33c.15-2.89,5-10.77,6.44-13l-9.3,7.57-.14-.17,9.18-7.72c-2.4.94-10.19,3.92-13.44,3.92a3,3,0,0,1-.54,0Z"/><path class="cls-3" d="M33.85,57.82a.64.64,0,0,1-.64.62c-.46-.06-.9-.16-1.36-.21a12.81,12.81,0,0,0-6.39.5,5.6,5.6,0,0,0-1.77,1.2,29,29,0,0,0-2.82,2.94.68.68,0,0,1-1.23,0l-.73-.81-.62-.82-.15-.2a.63.63,0,0,1,.19-1,24.54,24.54,0,0,0,3.22-2,7.16,7.16,0,0,0,1.53-1.31,9.12,9.12,0,0,0,1.64-3.66,20.06,20.06,0,0,0,.45-4.3.6.6,0,0,1,.57-.55,7,7,0,0,0,1,0,29.72,29.72,0,0,0,5.94-1.36C35.39,46,38,45,40.66,44l-.24.19-9.7,8.15c-.21-.06,9.82-8,9.79-8l.09-.07-.06.1a87.89,87.89,0,0,0-5.63,9.9,12.45,12.45,0,0,0-1.17,3.6Zm-.11,0a11.78,11.78,0,0,1,1.17-3.6,87.93,87.93,0,0,1,5.6-9.92c.14,0-9.82,8-9.79,8l0,0,9.68-8.17,0,.08c-2.53,1-5.08,2-7.68,2.79a24.92,24.92,0,0,1-6.48,1.39c-.31,0-.69-.13-.88.18a.89.89,0,0,0-.07.46c-.07,2.82-.43,6-2.44,8.18a25.89,25.89,0,0,1-4.22,2.9l-.23.12a.37.37,0,0,0-.17.13.44.44,0,0,0,0,.59l.15.21.62.81c.1.13.8.87.91,1a.44.44,0,0,0,.61,0c.08-.09.24-.31.33-.42a26.61,26.61,0,0,1,3.5-3.46,9.31,9.31,0,0,1,5.29-1.23,21.78,21.78,0,0,1,3.52.38.42.42,0,0,0,.42-.42Z"/><path class="cls-3" d="M20.27,63.37a.91.91,0,0,1-.72-.43l-.27-.31-.46-.51-.77-1a.74.74,0,0,1-.17-.65.69.69,0,0,1,.41-.51,25.57,25.57,0,0,0,3.2-2l.11-.08A6.56,6.56,0,0,0,23,56.64,8.8,8.8,0,0,0,24.61,53a19.91,19.91,0,0,0,.45-4.27.7.7,0,0,1,.67-.65H26a5.21,5.21,0,0,0,.79,0,28.05,28.05,0,0,0,5.72-1.3l.2-.06c2.38-.75,4.89-1.65,7.64-2.75l.08-.07,0,0,.21-.08.44-.18h0l.19-.08-.31.26-.31.49A89.12,89.12,0,0,0,35,54.27l-.09.2a12.13,12.13,0,0,0-1.06,3.25H34v.11a.72.72,0,0,1-.24.52.73.73,0,0,1-.51.2l-.64-.1-.73-.11a12.72,12.72,0,0,0-6.34.49A5.39,5.39,0,0,0,23.77,60,28.27,28.27,0,0,0,21,62.94a.84.84,0,0,1-.67.43Zm5.54-14.92a.35.35,0,0,0-.34.16.48.48,0,0,0-.06.3V49c-.07,2.84-.43,6-2.47,8.25a25.83,25.83,0,0,1-4.25,2.91l-.23.12a.38.38,0,0,0-.14.11.34.34,0,0,0,0,.45l.78,1c.05.07.31.35.52.58l.38.42a.3.3,0,0,0,.23.09.29.29,0,0,0,.22-.09l.18-.22.15-.19A26.4,26.4,0,0,1,24.34,59a9.2,9.2,0,0,1,5.36-1.25,22.71,22.71,0,0,1,3.53.38.28.28,0,0,0,.2-.09.37.37,0,0,0,.1-.22v-.1h.12a11.48,11.48,0,0,1,1.07-3.33l.09-.2A82.71,82.71,0,0,1,40,44.89c-.77.65-2.46,2-6.2,5.06l-2.62,2.13-.36.3v.06h-.21v0l0,0-.07-.09,9-7.61c-2.41,1-4.64,1.75-6.78,2.43l-.69.21a21.9,21.9,0,0,1-5.83,1.19H26Zm6.83,9.79.46.08Zm1.09-.31,0,.06,0-.06Z"/><circle class="cls-4" cx="29.82" cy="52.9" r="0.75"/></g></g></svg>