<svg xmlns="http://www.w3.org/2000/svg" xmlns:xlink="http://www.w3.org/1999/xlink" viewBox="0 0 301.77 136.67"><defs><style>.cls-1{mask:url(#mask);}.cls-10,.cls-12,.cls-14,.cls-16,.cls-2,.cls-4,.cls-6,.cls-8{mix-blend-mode:multiply;}.cls-2{fill:url(#radial-gradient);}.cls-3{mask:url(#mask-2);}.cls-4{fill:url(#radial-gradient-2);}.cls-5{mask:url(#mask-3);}.cls-6{fill:url(#radial-gradient-3);}.cls-7{mask:url(#mask-5);}.cls-8{fill:url(#radial-gradient-5);}.cls-9{mask:url(#mask-8);}.cls-10{fill:url(#radial-gradient-8);}.cls-11{mask:url(#mask-10);}.cls-12{fill:url(#radial-gradient-10);}.cls-13{mask:url(#mask-12);}.cls-14{fill:url(#radial-gradient-12);}.cls-15{mask:url(#mask-14);}.cls-16{fill:url(#radial-gradient-14);}.cls-17,.cls-18,.cls-20,.cls-21{fill:#fff;}.cls-17,.cls-18{stroke:#fff;stroke-miterlimit:10;stroke-width:2px;}.cls-18{font-size:65.68px;letter-spacing:0.46em;}.cls-18,.cls-19{font-family:Attentica4F-UltraLight, "Attentica 4F";font-weight:100;}.cls-19{font-size:46.31px;}.cls-21{letter-spacing:-0.03em;}.cls-22{mask:url(#mask-17);}.cls-23{fill:url(#radial-gradient-17);}.cls-24{mask:url(#mask-19);}.cls-25{fill:url(#radial-gradient-18);}.cls-26{mask:url(#mask-21);}.cls-27{fill:url(#radial-gradient-19);}.cls-28{mask:url(#mask-23);}.cls-29{fill:url(#radial-gradient-20);}.cls-30{mask:url(#mask-25);}.cls-31{fill:url(#radial-gradient-21);}.cls-32{mask:url(#mask-27);}.cls-33{fill:url(#radial-gradient-22);}.cls-34{mask:url(#mask-29);}.cls-35{fill:url(#radial-gradient-23);}.cls-36{mask:url(#mask-31);}.cls-37{fill:url(#radial-gradient-24);}.cls-38{filter:url(#luminosity-noclip-14);}.cls-39{filter:url(#luminosity-noclip-12);}.cls-40{filter:url(#luminosity-noclip-10);}.cls-41{filter:url(#luminosity-noclip-8);}.cls-42{filter:url(#luminosity-noclip-5);}.cls-43{filter:url(#luminosity-noclip-3);}.cls-44{filter:url(#luminosity-noclip-2);}.cls-45{filter:url(#luminosity-noclip);}</style><filter id="luminosity-noclip" x="198.22" y="-9597.76" width="103.55" height="32766" filterUnits="userSpaceOnUse" color-interpolation-filters="sRGB"><feFlood flood-color="#fff" result="bg"/><feBlend in="SourceGraphic" in2="bg"/></filter><mask id="mask" x="198.22" y="-9597.76" width="103.55" height="32766" maskUnits="userSpaceOnUse"><g class="cls-45"/></mask><radialGradient id="radial-gradient" cx="2590.58" cy="-188712.81" r="366.28" gradientTransform="translate(-2285.21 1890.07) rotate(45) scale(0.2 0.02)" gradientUnits="userSpaceOnUse"><stop offset="0" stop-color="#fff"/><stop offset="0.03" stop-color="#e9e9e9"/><stop offset="0.1" stop-color="#b9b9b9"/><stop offset="0.17" stop-color="#8d8d8d"/><stop offset="0.25" stop-color="#676767"/><stop offset="0.33" stop-color="#474747"/><stop offset="0.42" stop-color="#2d2d2d"/><stop offset="0.52" stop-color="#191919"/><stop offset="0.63" stop-color="#0b0b0b"/><stop offset="0.77" stop-color="#020202"/><stop offset="1"/></radialGradient><filter id="luminosity-noclip-2" x="245.75" y="-9597.76" width="8.49" height="32766" filterUnits="userSpaceOnUse" color-interpolation-filters="sRGB"><feFlood flood-color="#fff" result="bg"/><feBlend in="SourceGraphic" in2="bg"/></filter><mask id="mask-2" x="245.75" y="-9597.76" width="8.49" height="32766" maskUnits="userSpaceOnUse"><g class="cls-44"/></mask><radialGradient id="radial-gradient-2" cx="-24449.69" cy="-380348.51" r="540.43" gradientTransform="matrix(0, 0.07, -0.01, 0, -2687.11, 1708.07)" xlink:href="#radial-gradient"/><filter id="luminosity-noclip-3" x="212.49" y="-9597.76" width="75.02" height="32766" filterUnits="userSpaceOnUse" color-interpolation-filters="sRGB"><feFlood flood-color="#fff" result="bg"/><feBlend in="SourceGraphic" in2="bg"/></filter><mask id="mask-3" x="212.49" y="-9597.76" width="75.02" height="32766" maskUnits="userSpaceOnUse"><g class="cls-43"/></mask><radialGradient id="radial-gradient-3" cx="-44556.13" cy="200031.77" r="540.46" gradientTransform="matrix(-0.07, 0, 0, -0.01, -2886.66, 1520.47)" xlink:href="#radial-gradient"/><filter id="luminosity-noclip-5" x="219.34" y="-9597.76" width="61.31" height="32766" filterUnits="userSpaceOnUse" color-interpolation-filters="sRGB"><feFlood flood-color="#fff" result="bg"/><feBlend in="SourceGraphic" in2="bg"/></filter><mask id="mask-5" x="219.34" y="-9597.76" width="61.31" height="32766" maskUnits="userSpaceOnUse"><g class="cls-42"/></mask><radialGradient id="radial-gradient-5" cx="-23046.65" cy="60573.11" r="208.53" gradientTransform="matrix(-0.15, 0.06, 0, 0, -3100.93, 1680.35)" xlink:href="#radial-gradient"/><filter id="luminosity-noclip-8" x="233.22" y="-9597.76" width="33.56" height="32766" filterUnits="userSpaceOnUse" color-interpolation-filters="sRGB"><feFlood flood-color="#fff" result="bg"/><feBlend in="SourceGraphic" in2="bg"/></filter><mask id="mask-8" x="233.22" y="-9597.76" width="33.56" height="32766" maskUnits="userSpaceOnUse"><g class="cls-41"/></mask><radialGradient id="radial-gradient-8" cx="-3347.77" cy="-672165.39" r="208.91" gradientTransform="matrix(-0.08, -0.21, 0, 0, -2910.14, 928.84)" xlink:href="#radial-gradient"/><filter id="luminosity-noclip-10" x="242.45" y="-9597.76" width="15.09" height="32766" filterUnits="userSpaceOnUse" color-interpolation-filters="sRGB"><feFlood flood-color="#fff" result="bg"/><feBlend in="SourceGraphic" in2="bg"/></filter><mask id="mask-10" x="242.45" y="-9597.76" width="15.09" height="32766" maskUnits="userSpaceOnUse"><g class="cls-40"/></mask><radialGradient id="radial-gradient-10" cx="8367.07" cy="-454148.35" r="110.37" gradientTransform="matrix(0.07, -0.18, 0, 0, -2498.04, 1012.28)" xlink:href="#radial-gradient"/><filter id="luminosity-noclip-12" x="229.65" y="-9597.76" width="40.7" height="32766" filterUnits="userSpaceOnUse" color-interpolation-filters="sRGB"><feFlood flood-color="#fff" result="bg"/><feBlend in="SourceGraphic" in2="bg"/></filter><mask id="mask-12" x="229.65" y="-9597.76" width="40.7" height="32766" maskUnits="userSpaceOnUse"><g class="cls-39"/></mask><radialGradient id="radial-gradient-12" cx="10444.24" cy="469760.67" r="110.94" gradientTransform="matrix(0.18, 0.06, 0, 0, -2184.3, 1693.24)" xlink:href="#radial-gradient"/><filter id="luminosity-noclip-14" x="217.22" y="-9597.76" width="65.56" height="32766" filterUnits="userSpaceOnUse" color-interpolation-filters="sRGB"><feFlood flood-color="#fff" result="bg"/><feBlend in="SourceGraphic" in2="bg"/></filter><mask id="mask-14" x="217.22" y="-9597.76" width="65.56" height="32766" maskUnits="userSpaceOnUse"><g class="cls-38"/></mask><radialGradient id="radial-gradient-14" cx="-27314.51" cy="-93183.36" r="366.45" gradientTransform="translate(-2929.19 1773.15) rotate(135) scale(0.13 0.01)" xlink:href="#radial-gradient"/><mask id="mask-17" x="198.22" y="33.11" width="103.55" height="103.55" maskUnits="userSpaceOnUse"><g class="cls-1"><path class="cls-2" d="M301.6,136.49c-2.33,2.33-27.32-18.89-55.82-47.39S196.07,35.61,198.4,33.29s27.31,18.89,55.81,47.39S303.93,134.16,301.6,136.49Z"/></g></mask><filter id="luminosity-noclip-17" x="198.22" y="33.11" width="103.55" height="103.55" filterUnits="userSpaceOnUse" color-interpolation-filters="sRGB"><feFlood flood-color="#fff" result="bg"/><feBlend in="SourceGraphic" in2="bg"/></filter><radialGradient id="radial-gradient-17" cx="2590.58" cy="-188712.81" r="366.28" gradientTransform="translate(-2285.21 1890.07) rotate(45) scale(0.2 0.02)" gradientUnits="userSpaceOnUse"><stop offset="0" stop-color="#fff"/><stop offset="0.14" stop-color="#fff"/><stop offset="1" stop-color="#fff"/></radialGradient><mask id="mask-19" x="217.22" y="52.11" width="65.56" height="65.56" maskUnits="userSpaceOnUse"><g class="cls-15"><path class="cls-16" d="M217.35,117.54C215.73,115.92,229,100,247.07,82S281,50.62,282.64,52.24,271,69.79,252.93,87.82,219,119.15,217.35,117.54Z"/></g></mask><filter id="luminosity-noclip-18" x="217.22" y="52.11" width="65.56" height="65.56" filterUnits="userSpaceOnUse" color-interpolation-filters="sRGB"><feFlood flood-color="#fff" result="bg"/><feBlend in="SourceGraphic" in2="bg"/></filter><radialGradient id="radial-gradient-18" cx="-27314.51" cy="-93183.36" r="366.45" gradientTransform="translate(-2929.19 1773.15) rotate(135) scale(0.13 0.01)" xlink:href="#radial-gradient-17"/><mask id="mask-21" x="245.75" y="47.38" width="8.49" height="75.02" maskUnits="userSpaceOnUse"><g class="cls-3"><path class="cls-4" d="M248.94,122.4c-2.27-.06-3.64-16.91-3.05-37.63s2.89-37.46,5.16-37.39,3.64,16.91,3.06,37.63S251.21,122.46,248.94,122.4Z"/></g></mask><filter id="luminosity-noclip-19" x="245.75" y="47.38" width="8.49" height="75.02" filterUnits="userSpaceOnUse" color-interpolation-filters="sRGB"><feFlood flood-color="#fff" result="bg"/><feBlend in="SourceGraphic" in2="bg"/></filter><radialGradient id="radial-gradient-19" cx="-24449.69" cy="-380348.51" r="540.43" gradientTransform="matrix(0, 0.07, -0.01, 0, -2687.11, 1708.07)" xlink:href="#radial-gradient-17"/><mask id="mask-23" x="212.49" y="80.64" width="75.02" height="8.49" maskUnits="userSpaceOnUse"><g class="cls-5"><path class="cls-6" d="M212.49,83.83c.06-2.27,16.91-3.64,37.62-3s37.46,2.89,37.4,5.16S270.6,89.58,249.88,89,212.42,86.11,212.49,83.83Z"/></g></mask><filter id="luminosity-noclip-20" x="212.49" y="80.64" width="75.02" height="8.49" filterUnits="userSpaceOnUse" color-interpolation-filters="sRGB"><feFlood flood-color="#fff" result="bg"/><feBlend in="SourceGraphic" in2="bg"/></filter><radialGradient id="radial-gradient-20" cx="-44556.13" cy="200031.77" r="540.46" gradientTransform="matrix(-0.07, 0, 0, -0.01, -2886.66, 1520.47)" xlink:href="#radial-gradient-17"/><mask id="mask-25" x="219.34" y="72.92" width="61.31" height="23.93" maskUnits="userSpaceOnUse"><g class="cls-7"><path class="cls-8" d="M219.34,96.82c-.09-.52,13.55-6.28,30.48-12.87s30.74-11.51,30.83-11-13.55,6.28-30.48,12.87S219.44,97.34,219.34,96.82Z"/></g></mask><filter id="luminosity-noclip-21" x="219.34" y="72.92" width="61.31" height="23.93" filterUnits="userSpaceOnUse" color-interpolation-filters="sRGB"><feFlood flood-color="#fff" result="bg"/><feBlend in="SourceGraphic" in2="bg"/></filter><radialGradient id="radial-gradient-21" cx="-23046.65" cy="60573.11" r="208.53" gradientTransform="matrix(-0.15, 0.06, 0, 0, -3100.93, 1680.35)" xlink:href="#radial-gradient-17"/><mask id="mask-27" x="233.22" y="41.31" width="33.56" height="87.16" maskUnits="userSpaceOnUse"><g class="cls-9"><path class="cls-10" d="M233.24,41.31c-.5.27,6.6,20,15.86,44.07s17.16,43.36,17.65,43.09-6.6-20-15.85-44.07S233.74,41,233.24,41.31Z"/></g></mask><filter id="luminosity-noclip-22" x="233.22" y="41.31" width="33.56" height="87.16" filterUnits="userSpaceOnUse" color-interpolation-filters="sRGB"><feFlood flood-color="#fff" result="bg"/><feBlend in="SourceGraphic" in2="bg"/></filter><radialGradient id="radial-gradient-22" cx="-3347.77" cy="-672165.39" r="208.91" gradientTransform="matrix(-0.08, -0.21, 0, 0, -2910.14, 928.84)" xlink:href="#radial-gradient-17"/><mask id="mask-29" x="242.45" y="64.78" width="15.09" height="40.22" maskUnits="userSpaceOnUse"><g class="cls-11"><path class="cls-12" d="M257.53,64.78c-.3-.08-3.9,8.86-8.06,20s-7.29,20.17-7,20.25,3.9-8.86,8.06-20S257.82,64.86,257.53,64.78Z"/></g></mask><filter id="luminosity-noclip-23" x="242.45" y="64.78" width="15.09" height="40.22" filterUnits="userSpaceOnUse" color-interpolation-filters="sRGB"><feFlood flood-color="#fff" result="bg"/><feBlend in="SourceGraphic" in2="bg"/></filter><radialGradient id="radial-gradient-23" cx="8367.07" cy="-454148.35" r="110.37" gradientTransform="matrix(0.07, -0.18, 0, 0, -2498.04, 1012.28)" xlink:href="#radial-gradient-17"/><mask id="mask-31" x="229.65" y="78.01" width="40.7" height="13.77" maskUnits="userSpaceOnUse"><g class="cls-13"><path class="cls-14" d="M270.34,91.75c.07-.29-9-3.6-20.22-7.39s-20.4-6.63-20.47-6.33,9,3.6,20.22,7.39S270.28,92,270.34,91.75Z"/></g></mask><filter id="luminosity-noclip-24" x="229.65" y="78.01" width="40.7" height="13.77" filterUnits="userSpaceOnUse" color-interpolation-filters="sRGB"><feFlood flood-color="#fff" result="bg"/><feBlend in="SourceGraphic" in2="bg"/></filter><radialGradient id="radial-gradient-24" cx="10444.24" cy="469760.67" r="110.94" gradientTransform="matrix(0.18, 0.06, 0, 0, -2184.3, 1693.24)" xlink:href="#radial-gradient-17"/></defs><g id="Capa_2" data-name="Capa 2"><g id="Capa_1-2" data-name="Capa 1"><rect class="cls-17" x="1" y="62.29" width="124.4" height="44.41"/><text class="cls-18" transform="translate(9.57 56.83) scale(1.21 1)">ENTRE</text><text class="cls-19" transform="translate(9.57 99.78) scale(1.21 1)">sombras <tspan class="cls-20" x="98.86" y="0">y n</tspan><tspan class="cls-21" x="131.51" y="0">av</tspan><tspan class="cls-20" x="154.2" y="0">ajas</tspan></text><g class="cls-22"><g class="cls-22"><path class="cls-23" d="M301.6,136.49c-2.33,2.33-27.32-18.89-55.82-47.39S196.07,35.61,198.4,33.29s27.31,18.89,55.81,47.39S303.93,134.16,301.6,136.49Z"/></g></g><g class="cls-24"><g class="cls-24"><path class="cls-25" d="M217.35,117.54C215.73,115.92,229,100,247.07,82S281,50.62,282.64,52.24,271,69.79,252.93,87.82,219,119.15,217.35,117.54Z"/></g></g><g class="cls-26"><g class="cls-26"><path class="cls-27" d="M248.94,122.4c-2.27-.06-3.64-16.91-3.05-37.63s2.89-37.46,5.16-37.39,3.64,16.91,3.06,37.63S251.21,122.46,248.94,122.4Z"/></g></g><g class="cls-28"><g class="cls-28"><path class="cls-29" d="M212.49,83.83c.06-2.27,16.91-3.64,37.62-3s37.46,2.89,37.4,5.16S270.6,89.58,249.88,89,212.42,86.11,212.49,83.83Z"/></g></g><g class="cls-30"><g class="cls-30"><path class="cls-31" d="M219.34,96.82c-.09-.52,13.55-6.28,30.48-12.87s30.74-11.51,30.83-11-13.55,6.28-30.48,12.87S219.44,97.34,219.34,96.82Z"/></g></g><g class="cls-32"><g class="cls-32"><path class="cls-33" d="M233.24,41.31c-.5.27,6.6,20,15.86,44.07s17.16,43.36,17.65,43.09-6.6-20-15.85-44.07S233.74,41,233.24,41.31Z"/></g></g><g class="cls-34"><g class="cls-34"><path class="cls-35" d="M257.53,64.78c-.3-.08-3.9,8.86-8.06,20s-7.29,20.17-7,20.25,3.9-8.86,8.06-20S257.82,64.86,257.53,64.78Z"/></g></g><g class="cls-36"><g class="cls-36"><path class="cls-37" d="M270.34,91.75c.07-.29-9-3.6-20.22-7.39s-20.4-6.63-20.47-6.33,9,3.6,20.22,7.39S270.28,92,270.34,91.75Z"/></g></g></g></g></svg>