<?xml version="1.0" standalone="no"?>
<!DOCTYPE svg PUBLIC "-//W3C//DTD SVG 20010904//EN"
 "http://www.w3.org/TR/2001/REC-SVG-20010904/DTD/svg10.dtd">
<svg version="1.0" xmlns="http://www.w3.org/2000/svg"
 width="512.000000pt" height="512.000000pt" viewBox="0 0 512.000000 512.000000"
 preserveAspectRatio="xMidYMid meet">
<metadata>
Created by potrace 1.14, written by Peter Selinger 2001-2017
</metadata>
<g transform="translate(0.000000,512.000000) scale(0.100000,-0.100000)"
fill="#000000" stroke="none">
<path d="M4469 4547 c-215 -192 -477 -318 -662 -320 -24 -1 -169 -142 -936
-911 -2091 -2098 -2233 -2242 -2253 -2285 -27 -59 -27 -117 1 -173 31 -65 269
-302 318 -319 159 -52 642 150 943 395 264 215 557 672 599 936 1 2 63 -59
140 -135 76 -77 157 -158 180 -179 l40 -39 93 95 c179 184 218 223 230 234 7
6 42 44 78 84 92 103 97 109 144 164 77 92 107 117 135 114 23 -3 26 -8 29
-50 2 -26 -1 -62 -7 -80 -15 -54 -49 -143 -75 -200 -58 -129 -64 -209 -22
-276 96 -152 305 -138 378 25 32 73 16 145 -85 364 -49 108 -58 165 -43 288
16 135 101 338 210 503 166 252 338 576 434 819 54 135 123 352 136 424 3 14
11 60 20 102 24 126 29 171 30 316 2 91 -1 137 -8 137 -6 0 -27 -15 -47 -33z"/>
<path d="M3209 1409 c-65 -131 -108 -235 -113 -278 -10 -88 64 -165 160 -166
59 0 94 20 132 75 43 63 26 134 -80 345 -27 55 -52 102 -53 104 -2 1 -23 -35
-46 -80z"/>
</g>
</svg>
