<svg xmlns="http://www.w3.org/2000/svg" viewBox="0 0 48.77 48.78"><defs><style>.cls-1{fill:#fff;}</style></defs><g id="Capa_2" data-name="Capa 2"><g id="Capa_1-2" data-name="Capa 1"><path class="cls-1" d="M25.82,48.78H23a2.21,2.21,0,0,0-.37-.08A23.31,23.31,0,0,1,12,45.35,24.08,24.08,0,0,1,.38,28.59C.21,27.68.12,26.75,0,25.82V23l.09-.51c.15-1.05.24-2.11.46-3.15A23.73,23.73,0,0,1,9.6,5,23.68,23.68,0,0,1,29.51.58a23.56,23.56,0,0,1,14.21,9,23.76,23.76,0,0,1,4.93,17.27A23.59,23.59,0,0,1,42.7,40.47,24,24,0,0,1,28.59,48.4C27.67,48.56,26.74,48.66,25.82,48.78ZM24.4,3.43a21,21,0,1,0,21,21A21,21,0,0,0,24.4,3.43Z"/><path class="cls-1" d="M16.89,24.41a4.31,4.31,0,0,1,.52.39c1.82,1.81,3.64,3.62,5.45,5.45a1.7,1.7,0,0,1-.6,2.94,1.62,1.62,0,0,1-1.53-.28,5.11,5.11,0,0,1-.42-.39l-6.76-6.77a1.73,1.73,0,0,1,0-2.74c2.3-2.3,4.61-4.6,6.9-6.91a1.75,1.75,0,0,1,1.82-.52,1.62,1.62,0,0,1,1.17,1.26,1.77,1.77,0,0,1-.6,1.71C21,20.36,19.22,22.17,17.41,24,17.29,24.09,17.15,24.2,16.89,24.41Z"/><path class="cls-1" d="M27.49,24.41a5.32,5.32,0,0,1,.52.39c1.82,1.81,3.64,3.62,5.45,5.45a1.7,1.7,0,0,1-.6,2.94,1.62,1.62,0,0,1-1.53-.28,5.11,5.11,0,0,1-.42-.39l-6.76-6.77a1.73,1.73,0,0,1,0-2.74c2.3-2.3,4.61-4.6,6.9-6.91a1.75,1.75,0,0,1,1.82-.52A1.62,1.62,0,0,1,34,16.84a1.77,1.77,0,0,1-.6,1.71C31.62,20.36,29.82,22.17,28,24,27.89,24.09,27.74,24.2,27.49,24.41Z"/></g></g></svg>