<svg id="Capa_1" data-name="Capa 1" xmlns="http://www.w3.org/2000/svg" viewBox="0 0 925.55 1130.71"><defs><style>.cls-1{fill:#fff;}</style></defs><path class="cls-1" d="M33.74,465.14c.45-.58.91-1.15,1.37-1.72l2.63-.54-.22.15,1.57-1.7c-.23-1.14-1.07-2.81-.6-3.35a60.32,60.32,0,0,1,7.93-7.89q32.82-25.74,65.86-51.21a9.47,9.47,0,0,0,4.19-8.49q-.19-69.47-.08-138.93v-6.82h7q91,0,182-.15a16.15,16.15,0,0,0,9.16-3.15q47.35-36.42,94.39-73.26c32.81-25.61,73.81-25.9,106.85-.41q47.29,36.5,94.32,73.36a16.3,16.3,0,0,0,10.78,3.69q90.47-.16,180.94-.08H809V252c0,45.77.06,91.54-.1,137.32,0,4.4,1.25,7.23,4.74,9.92,30.28,23.33,60.39,46.86,90.65,70.19a8.55,8.55,0,0,1,3.65,7.65q-.1,249.87-.06,499.74V982H17.65v-6.55q0-247.73,0-495.43c0-9.22.22-9.6,8.77-12.8,2.5-.93,5.1-1.56,7.66-2.34v.34ZM146.53,275.57c-.92,5.58-2.48,10.81-2.49,16.05,0,8.48,1.48,17,1.5,25.44q.19,107.67-.06,215.36c0,5.61,1.66,9.07,6.08,12.5Q288.54,651,425.3,757.46c25.11,19.51,49.77,19.63,74.66.28Q637.41,650.87,774.89,544.07c3.67-2.85,5-5.64,5-10.22q-.21-108.77-.08-217.52a23.29,23.29,0,0,1,.4-5.29c1-4.47,3.84-8.86,0-13.36-.48-.55-.31-1.72-.32-2.6,0-6.43,0-12.86,0-19.51ZM573.69,737.85c-20.05,15.58-39.66,31-59.45,46.14-30.6,23.48-71.9,23.65-102.5.35Q383.69,763,356.12,741c-3.36-2.67-5.38-2.45-8.63.07Q220.76,839.81,93.87,938.33C88,942.9,82.13,947.5,75.55,952.65H850l-97.1-75.52,1.68-1.91-6.21-5.31c-.18.47-.54,1.38-.9,2.3-3.3-2.72-6.1-5.88-9.59-7.68-4.19-2.15-6.73-4-2.22-8.93-1.94,0-3.21-.4-3.88.06-3.2,2.25-5.56.82-8.16-1.2Q678,818.87,632.32,783.4C612.93,768.32,593.52,753.26,573.69,737.85Zm304.88-236.6c-2.09,1.44-3.42,2.26-4.66,3.22Q862.42,513.37,851,522.3L828,540.15c-7.64,6-15.57,11.57-22.86,17.93-7,6.14-15,11-22.29,16.77C727,619,670.61,662.5,614.38,706.21c-5.46,4.25-10.88,8.54-16.62,13,1.91,1.56,3.25,2.71,4.65,3.8q70.73,55,141.45,110.06a36.21,36.21,0,0,1,3.92,4.18c1.74,1.86,3.22,4.11,5.27,5.49,5,3.36,10.26,6.32,15.46,9.47l-6.82,7.84,1,1.11,10.55-4.35c1.37,2.13,2.44,4.64,3,4.53,7.13-1.4,5.8,3.53,6.44,7.63.33,2.1,2.54,3.91,3.9,5.84,1.12-1.43,2.23-2.87,3.39-4.28a1.06,1.06,0,0,1,.54-.32c4.55,3.22,9,6.16,13.28,9.44Q839,906.85,874,934.12c1.28,1,2.67,1.86,4.57,3.18Zm-831.16,0V937.19C49,936,50,935.34,50.92,934.61c21.68-16.83,43.3-33.75,65.06-50.47,8-6.14,16.43-11.71,24.49-17.76,3.16-2.38,5.66-5.64,8.79-8.08q73.23-57.06,146.55-114c10.56-8.22,21.11-16.46,32-24.93-1.58-1.32-2.63-2.26-3.73-3.11Q246.3,655.81,168.57,595.35c-9.28-7.24-18-15.21-27.18-22.55-4.38-3.49-9.53-6-14-9.43-14.25-10.89-28.33-22-42.49-33C72.63,520.81,60.34,511.29,47.41,501.26Zm518.67-256.9c-2-1.62-3.12-2.62-4.32-3.55Q529.7,215.9,497.64,191c-21.87-16.89-48-16.86-69.9.08-21.55,16.67-43,33.47-64.53,50.16a19.36,19.36,0,0,1-3.59,1.78l1.32,1.35ZM809.38,433.3v83.85l53.93-41.95C845.24,461.15,827.62,447.47,809.38,433.3Zm-693-.17L62.18,475.21,116,517a28.16,28.16,0,0,0,.38-2.87C116.36,487.59,116.36,461.06,116.36,433.13Z"/><path class="cls-1" d="M34.3,462.41l4.79-1.09L37.52,463l.22-.15-2.65.68-.7-1Z"/><path class="cls-1" d="M35.09,463.56l2.65-.68-2.63.54A.68.68,0,0,0,35.09,463.56Z"/><polygon class="cls-1" points="33.74 465.14 34.07 465.22 34.07 464.88 33.74 465.14"/><path class="cls-1" d="M34.3,462.41l.09.13Z"/><path class="cls-1" d="M37.52,463l1.57-1.71v0C38.57,461.9,38,462.46,37.52,463Z"/><path class="cls-1" d="M443.08,590.76l9.28-2,.3,1.25-2.59.85,4.5,3.77,2.79-4.62c2,3.22,6.27-5,7.86,1.62.24,1,3,1.4,4.7,2.1l-1.12,1.69,1.48.77,3.2-7.19c4.54,1.66,10.12,2.11,15.59-2.29.25,3.55.4,5.65.55,7.76l.67.24,1-2.77c1.11,1.09,2.47,2.41,3.84,3.73.48-1.84,1.62-3.79,1.33-5.5-.78-4.74,1.61-4.6,4.67-4,.48,2.81.92,5.39,1.54,9l6.55-4.14-2.7-5.33c2.24-2,4-4.28,7.66-1.07,2.11,1.87,5,1.82,6.15-2.05a6,6,0,0,1,3-3.25c9.48-4.25,19-8.47,28.61-12.34a44.15,44.15,0,0,1,11.9-2.94c4.44-.44,8,1.79,9.89,6s.76,8.34-2.58,11.21-7.32,6-11.54,7.71c-11.8,4.67-23.86,8.73-35.9,12.79-1.44.48-3.38-.51-5.87-1-.56.35-2.15,2-4,2.45a208.34,208.34,0,0,1-60.29,6.5c-22-.92-43.6-3.65-64.13-12.17-36.36-15.1-56.08-42.73-60.83-81.37-2.25-18.25-2.34-36.55,1.35-54.67,7.66-37.58,30.44-62.06,66-75,27.44-10,56-12.06,84.86-10.38,18.85,1.09,37.44,3.81,55.36,10.17,38.12,13.55,59.29,40.46,62.21,80.75a254.43,254.43,0,0,1-.82,46.18c-2.51,22.67-17.38,36.14-40.1,38.86-20,2.39-35.91-2.49-50.81-15.67-17.63,17.62-39.42,22.2-62.93,17.7-13.1-2.51-26.16-6.74-35.41-18A62.25,62.25,0,0,1,394,498.69c-.77-15.37,1.07-30.28,10.07-43.22,13.86-19.93,34.17-26.2,57.31-25.35a61.4,61.4,0,0,1,34.52,12c3.88-9.06,14.52-13.05,22.58-7.76,2.65,1.75,4.58,6.52,4.65,9.94.32,17.94-.17,35.88-.13,53.83a80.13,80.13,0,0,0,1.32,16.54c2.29,10.61,10.42,16.59,21.91,17.05s21.56-4.94,23.24-15.71c2.18-13.87,2.47-28.14,2.31-42.23a75.78,75.78,0,0,0-12.62-41.68c-10.77-16.19-26.67-24.9-45-29-32.65-7.34-65.61-7.77-98.14.24-36.74,9-57.44,34.45-60.5,72.46-1.39,17.22-1.45,34.41,2.75,51.37,6.06,24.41,21.24,40.9,43.85,51.17,2.08.95,3.36,3.52,5.3,5a7.65,7.65,0,0,0,4.18,1.27c2.05.06,4.67-1.3,6.07-.44,3,1.84,4.74,4.93,9.45,2.06,2.07-1.26,6.61,1.44,10,2.44C438.87,589.15,440.58,589.86,443.08,590.76Zm53.41-98,.36-.09c-.82-5.66-1.26-11.41-2.53-17-2.7-11.77-10-19.71-22-21.52a90.68,90.68,0,0,0-25.59-.37c-13,1.77-22.2,9.61-25.13,22.62a82.59,82.59,0,0,0-1.68,23.94c1.62,21.6,15.65,33.93,37.88,34.39,22.75.48,35.1-10.2,38-32.89C496.14,498.88,496.25,495.82,496.49,492.79Z"/></svg>