<?xml version="1.0" encoding="UTF-8"?>
<svg id="Capa_1" data-name="Capa 1" xmlns="http://www.w3.org/2000/svg" viewBox="0 0 973.72 401.09">
  <defs>
    <style>
      .cls-1, .cls-2, .cls-3, .cls-4, .cls-5 {
        stroke-width: 0px;
      }

      .cls-2 {
        fill: #3c3c3b;
      }

      .cls-3 {
        fill: #575756;
      }

      .cls-4 {
        fill: #b2b2b2;
      }

      .cls-5 {
        fill: #fff;
      }
    </style>
  </defs>
  <path class="cls-2" d="m284.68,223l-11.38,10.43c-63.81,58.49-152.98,116.16-168.48,126.8S2.93,424.45.07,389.29c-2.34-28.8,58.63-90.76,80.82-112.29,3.79-3.67,9.84-3.58,13.52.21.3.31.58.65.84,1h0c2.77,3.78,2.4,9-.88,12.35-20.11,20.46-86,88.69-77.12,95.46,4.46,3.41,55.81-21.35,111.66-56.45,67-42.13,141.27-95.99,155.77-106.57Z"/>
  <path class="cls-3" d="m287.2,221.16l-2.47,1.84h-.05c40.14-37.63,80.64-75.28,115.79-117.71,16-19.38,30.77-39.85,42.91-61.83,4.52-8.5,18.33-34.21,2.43-37.06-4.17-.56-8.41-.34-12.5.65-8.7,2.02-17.12,5.07-25.09,9.09-7.06,3.39-13.79,7.4-20.13,12-.8.68-23.67,16.94-25.31,18-13.92,10-28,19.89-41.52,30.36l-2.52,2.07-5.82-6.87c1.4-1.14,4.23-3.29,5.67-4.35,13-9.48,26.41-18.6,39.69-27.68l22.82-15.38c3.75-2.83,7.66-5.43,11.72-7.78,12.35-7,25.21-12.72,39.31-15.56,20.1-4,31.75,4.6,24.56,25.77-2.94,8.88-7.71,17.19-12.54,25.11-11.89,19.78-26.1,38.2-41.06,55.66-36.09,41.82-77.4,78.68-118.38,115.54h-.05l2.51-1.79.03-.08Z"/>
  <path class="cls-3" d="m113.82,295.52c5.13,3.41,8.84,6.65,14.87,5.59,8.74-1.71,16.74-8,24-13.09,29.17-21.07,57.84-43,85.42-66.07,29.72-25.32,59.55-51.34,82.77-82.82,3.77-5.2,7.12-10.69,10-16.43,2.69-5.55,4.87-11.6,5-17.72l.64,1.69c-8.92-10.14-45.75-51.88-53.93-61.18-6.67-6.8-25.2-25.5-32.12-32.54-3.47-4.8-8.74-5.88-14-2.92-3.29,1.8-6,4.71-8.92,7-27.94,21.63-56.12,42.86-83,65.85-27.82,23.53-55.27,48.73-81.41,74.15-4.17,4.05-13.85,13.81-18.05,17.91,6.86-7,17-17.35,23.85-24.09,40.07-39.89,82.38-77.47,126.71-112.56,11.53-9.31,23.57-18,34.66-27.77,7.46-6.87,16.7-7.55,22.52,0l32.61,32.21,54.77,60.56.64.72v1c-1.42,49.55-119.67,140.65-159.64,171.95-7.56,5.87-16,12.06-23.65,17.81-6,4.45-12.53,9.3-19.41,12.39-4.39,2-9.27,3.37-14.14,2.82-5.58-.36-11.13-4.29-15.14-6.94l4.92-7.53h.03Z"/>
  <path class="cls-1" d="m154.66,265.01c-.07,1.35-1.22,2.38-2.56,2.31-.09,0-.19-.01-.28-.03-8.41-1.63-30.82-4.7-42.16,5.76-8.59,7.93-12.82,12.86-14.82,15.5-.81,1.06-2.32,1.26-3.38.46-.12-.09-.23-.19-.33-.31l-4.11-4.55-3.76-4.86c-.81-1.06-.61-2.57.45-3.38.12-.09.25-.17.39-.24,3-1.47,8.6-4.7,18-11.66,12.39-9.17,13.56-31.76,13.54-40.33.02-1.35,1.12-2.43,2.47-2.41.12,0,.23.01.35.03,15,2.11,65.9-18.62,66.66-18.92l-44.43,37.37,45-36.64c-.43.7-30.29,46.76-31.03,61.9Z"/>
  <path class="cls-5" d="m155.16,265.03c-.09,1.59-1.41,2.83-3,2.83-2.13-.28-4.1-.73-6.22-1-9.74-1.2-20.13-1.45-29.32,2.31-3.02,1.3-5.76,3.16-8.09,5.48-4.61,4.19-8.92,8.69-12.9,13.48-1.52,2.43-4,2.36-5.64,0l-3.37-3.74-2.8-3.69-.71-.93c-1.07-1.18-.98-3,.2-4.07.2-.19.44-.34.68-.46,5.16-2.74,10.12-5.85,14.83-9.31,2.6-1.67,4.95-3.69,7-6,3.9-4.83,6.09-10.79,7.49-16.79,1.4-6.47,2.09-13.06,2.06-19.68.12-1.37,1.23-2.45,2.61-2.51,1.55.16,3.11.2,4.67.11,9.31-.75,18.33-3.55,27.23-6.24,12.33-3.89,24.48-8.37,36.48-13.19l-1.06.9-44.48,37.31c-1-.24,45-36.63,44.88-36.83l.41-.33-.29.44c-9.34,14.68-18.4,29.62-25.78,45.41-2.31,5.28-4.8,10.68-5.36,16.48h.5l-.02.02Zm-.5,0c.55-5.8,3-11.21,5.32-16.5,7.35-15.81,16.37-30.77,25.68-45.48.63.1-45,36.71-44.86,36.81l-.19-.24,44.38-37.42.23.37c-11.58,4.66-23.3,9-35.2,12.77-9.68,2.87-19.52,6.19-29.72,6.39-1.39,0-3.14-.61-4,.83-.32.65-.43,1.38-.33,2.1-.33,12.93-2,27.64-11.2,37.5-5.99,5.06-12.47,9.5-19.35,13.27l-1,.53c-1.03.46-1.49,1.68-1.03,2.71.1.23.25.44.43.62l.7.93,2.84,3.72c.43.58,3.67,4,4.15,4.59.78.76,2.02.76,2.8,0,.38-.41,1.13-1.44,1.54-1.91,4.82-5.78,10.18-11.1,16-15.88,7.1-4.7,16-5.73,24.25-5.61,5.41.13,10.8.7,16.12,1.7,1.04-.03,1.88-.85,1.94-1.88h.5v.08Z"/>
  <circle class="cls-5" cx="136.69" cy="242.44" r="3.42"/>
  <path class="cls-1" d="m264.29,291.42l64.53-60.3h-18l-53.72,50.43v-32.35c-4.45,3.44-9.08,6.67-13.7,9.7v106.61h13.7v-62.6l58.91,62.6h17.81l-69.53-74.09Z"/>
  <path class="cls-1" d="m351.82,266.11h12.79v17.81c4.5-6.27,10.3-11.49,17-15.3,6.22-3.38,13.2-5.13,20.28-5.07,7.01-.12,13.9,1.85,19.78,5.66,5.69,3.69,10.13,9.01,12.75,15.26,2.74,6.4,4.11,16.36,4.11,29.88v51.16h-12.8v-47.42c0-11.45-.47-19.09-1.42-22.93-1.49-6.58-4.32-11.54-8.49-14.87s-9.66-5-16.45-5c-7.63-.04-15.02,2.68-20.79,7.67-5.97,4.87-10.21,11.53-12.11,19-1.21,4.94-1.82,13.94-1.82,27v36.45h-12.83v-99.3Z"/>
  <path class="cls-4" d="m537.65,266.11h24.94v99.4h-24.94v-10.5c-4.24,4.2-9.2,7.58-14.65,10-5.05,2.07-10.46,3.11-15.92,3.06-12.84,0-23.94-4.98-33.31-14.94-9.37-9.96-14.05-22.34-14.05-37.14s4.53-27.91,13.59-37.73c9.06-9.82,20.06-14.72,33-14.71,5.77-.04,11.48,1.11,16.79,3.38,5.45,2.41,10.38,5.85,14.51,10.14l.04-10.96Zm-26.22,20.46c-7.28-.18-14.29,2.8-19.21,8.18-5.1,5.45-7.65,12.45-7.65,21s2.59,15.62,7.78,21.19c4.89,5.42,11.88,8.45,19.17,8.32,7.37.19,14.46-2.78,19.48-8.18,5.16-5.45,7.74-12.59,7.75-21.42,0-8.67-2.58-15.67-7.75-21-5.17-5.33-11.69-8.03-19.57-8.09h0Z"/>
  <path class="cls-4" d="m581.96,266.11h21.38v12.52c1.97-4.53,5.17-8.42,9.23-11.24,3.72-2.52,8.11-3.86,12.6-3.84,3.53.07,7,.95,10.15,2.56l-7.77,21.47c-2.21-1.26-4.68-2.01-7.22-2.19-3.84,0-7.08,2.37-9.73,7.12s-3.98,14.08-4,28l.09,4.84v40.2h-24.73v-99.44Z"/>
  <path class="cls-4" d="m650.66,229.47h24.95v36.64h14.8v21.47h-14.8v77.93h-24.95v-77.93h-12.79v-21.47h12.79v-36.64Z"/>
  <path class="cls-4" d="m764.59,280l-15.44,15.44c-6.27-6.22-11.97-9.33-17.08-9.32-2.33-.14-4.64.49-6.58,1.78-1.48.99-2.37,2.65-2.38,4.43.02,1.38.56,2.7,1.51,3.7,1.01,1.13,3.49,2.66,7.45,4.61l9.13,4.57c9.63,4.75,16.24,9.6,19.83,14.53,8.59,12.4,6.74,29.23-4.34,39.47-6.49,5.91-15.19,8.87-26.08,8.86-14.5,0-26.07-5.67-34.72-17l15.35-16.72c2.88,3.37,6.37,6.18,10.28,8.27,3.92,2.1,7.41,3.15,10.46,3.15,2.86.15,5.69-.69,8-2.38,1.82-1.24,2.94-3.28,3-5.48,0-3.84-3.62-7.59-10.87-11.24l-8.41-4.2c-16.11-8.12-24.16-18.26-24.16-30.41-.06-7.72,3.26-15.09,9.09-20.15,6.06-5.57,13.81-8.36,23.26-8.36,12.9-.06,25.06,6.05,32.7,16.45Z"/>
  <path class="cls-1" d="m792.14,225.18c2.81-.04,5.51,1.08,7.46,3.1,2.02,1.97,3.13,4.68,3.09,7.5-.25,5.8-5.16,10.29-10.96,10.04-5.44-.24-9.8-4.6-10.04-10.04-.03-2.82,1.1-5.53,3.13-7.49,1.91-2,4.55-3.13,7.32-3.11Zm-6.32,40.93h12.79v99.4h-12.79v-99.4Z"/>
  <path class="cls-1" d="m825.07,266.11h12.75v17.18c4.46-6.33,9.03-10.96,13.72-13.88,6.13-3.8,13.19-5.83,20.4-5.85,4.72-.02,9.39.95,13.72,2.83,4.05,1.69,7.68,4.27,10.61,7.54,2.75,3.14,5.13,7.63,7.14,13.48,4.25-7.8,9.59-13.72,16-17.77,6.13-3.98,13.29-6.09,20.6-6.08,6.44-.12,12.78,1.7,18.18,5.21,5.3,3.52,9.38,8.59,11.7,14.52,2.56,6.22,3.84,15.55,3.83,28v54.27h-13.06v-54.27c0-10.67-.76-18-2.28-22-1.5-3.96-4.23-7.34-7.79-9.64-3.92-2.5-8.5-3.77-13.15-3.65-6.11-.04-12.06,1.88-17,5.48-5.12,3.64-9.04,8.73-11.24,14.62-2.37,6.09-3.55,16.26-3.55,30.51v38.92h-12.78v-50.91c0-12-.75-20.15-2.24-24.44-1.42-4.19-4.16-7.81-7.81-10.32-3.9-2.64-8.53-4-13.24-3.88-5.95,0-11.75,1.86-16.59,5.31-5.15,3.56-9.12,8.57-11.42,14.39-2.47,6-3.71,15.23-3.71,27.68v42.12h-12.79v-99.37Z"/>
</svg>