<svg id="Capa_1" data-name="Capa 1" xmlns="http://www.w3.org/2000/svg" viewBox="0 0 925.55 1130.71"><defs><style>.cls-1{fill:#fff;}</style></defs><path class="cls-1" d="M371.18,685.85c0-4.21,0-8.41,0-12.62q.18-162.66.39-325.32c0-9.51-.15-19.11,1.05-28.51,3.23-25.27,23.88-45.59,48.24-48.36,24.53-2.8,48.58,12,57.18,36a67.64,67.64,0,0,1,3.55,22.26c.08,72.68-.21,145.36-.4,218v7.76c17.79-14.81,36.57-18.7,56.9-10.66s31.33,24,34.57,46.43c17.81-13.61,36.87-17.95,57.21-9.49s30.64,25.38,34.3,47.54l5-3.76c17.16-12.85,35.7-14.62,54.94-5.84s31.28,24.48,31.51,45.44c.64,57.5,1.49,115.11-1.28,172.5-2.24,46.31-21.94,86.84-55.43,119.42-25.64,24.94-57.32,36.68-93,36.87-41,.22-82.06,1.14-123-.44-59.48-2.29-103.61-30.74-131.36-83.53-17.16-32.66-33.13-66-50.26-98.63-17.24-32.89-38.57-62.89-65.71-88.53-11.86-11.2-19.3-24.78-20.44-41.31C213.36,655.91,227,631.93,249,621.41A61.19,61.19,0,0,1,317.8,632.1c15.84,15.16,30.42,31.64,45.55,47.55,2.13,2.23,4.22,4.48,6.33,6.72Zm92.33-88.35c-.22-2.54-.43-3.82-.43-5.1q.1-94.74.25-189.47c0-25.85.37-51.7,0-77.54-.23-15.89-8.38-27.42-22.95-33.52-14.07-5.9-27.17-3.18-38.19,7.44-8.88,8.56-12.39,19.4-12.39,31.63q0,75.8-.18,151.58-.17,121-.32,242c0,2.52-.25,5-.44,8.65l-27-28.55c-17.75-18.78-35.39-37.67-53.28-56.32-19.28-20.11-48.36-19.61-65.63.89-13.84,16.42-13.41,41.31,2.31,56.79,29,28.62,53.5,60.54,72.28,96.69,16.66,32,32.65,64.44,49.08,96.6,24.61,48.2,64,74.2,118.1,75.81,41,1.22,82,.64,123,.25,33.11-.31,61.78-12.55,84-37,30.73-33.9,45.68-74.48,46-120.24.26-42.56.14-85.12.19-127.68,0-7.77.45-15.57-.11-23.3-1.11-15.62-9.16-26.69-23.79-32.28s-27.41-1.9-38.38,9c-7.44,7.4-15,14.67-22.54,22a37.67,37.67,0,0,1-3.81,2.8c-1.33-14.2-2.08-27.59-3.93-40.83-3-21.05-21.15-34.64-41.53-31.75-7.79,1.11-14.28,4.74-20,10-8.37,7.75-16.81,15.41-26,23.87-.41-2.78-.74-4.41-.87-6.06-.85-10.45-1.48-20.93-2.52-31.37-1.49-14.82-9-25.53-23-31-13.76-5.45-26.32-2.89-37.26,7.12-3.58,3.28-7,6.72-10.53,10.07C477.14,584.63,470.72,590.69,463.51,597.5Z"/><path class="cls-1" d="M563.66,199c-1.92,3.23-2.86,5.86-4.65,7.67q-24.3,24.61-48.9,48.95c-4.41,4.37-9.69,4.51-13.44.87-4-3.87-3.81-9.16.85-13.86,16.26-16.36,32.63-32.62,48.94-48.93,3-3,6.77-4.57,10.47-2.24C559.57,193.1,561.29,196.22,563.66,199Z"/><path class="cls-1" d="M293,189.29c3.21,2,5.82,3,7.64,4.79q24.61,24.31,49,48.89c4.16,4.2,4.2,9.89.52,13.47s-8.9,3.62-13-.43c-16.83-16.61-33.65-33.23-50-50.27-2-2.06-2.52-7-1.56-10C286.36,193.17,290.2,191.54,293,189.29Z"/><path class="cls-1" d="M414.34,181.15c0-11.07,0-22.15,0-33.23,0-7.16,3.28-11.21,8.9-11.27s9.15,3.93,9.17,11.07q.13,34.11-.07,68.21c0,6.23-3.59,10.07-8.88,10.19s-9-4.11-9.1-10.57C414.28,204.09,414.34,192.62,414.34,181.15Z"/><path class="cls-1" d="M275.59,338.64c-11.27,0-22.54,0-33.81,0-7.16,0-11.25-3.26-11.42-8.84s4.21-9.24,11.61-9.25q33.22-.06,66.45,0c7.14,0,11.28,3.35,11.4,8.84.13,5.72-4.14,9.18-11.59,9.22C297.35,338.68,286.47,338.64,275.59,338.64Z"/><path class="cls-1" d="M571.2,320.5c11.27,0,22.54-.06,33.81,0,7.29.06,11.2,3.29,11.25,9s-4,9.1-11.06,9.12q-33.81.09-67.61,0c-6.68,0-10.56-3.41-10.68-8.93s3.85-9.06,10.49-9.13C548.67,320.41,559.93,320.5,571.2,320.5Z"/></svg>