<?xml version="1.0" standalone="no"?>
<!DOCTYPE svg PUBLIC "-//W3C//DTD SVG 20010904//EN"
 "http://www.w3.org/TR/2001/REC-SVG-20010904/DTD/svg10.dtd">
<svg version="1.0" xmlns="http://www.w3.org/2000/svg"
 width="409.000000pt" height="409.000000pt" viewBox="0 0 409.000000 409.000000"
 preserveAspectRatio="xMidYMid meet">
<metadata>
Created by potrace 1.14, written by Peter Selinger 2001-2017
</metadata>
<g transform="translate(0.000000,409.000000) scale(0.100000,-0.100000)"
fill="#000000" stroke="none">
<path d="M3915 4009 c-189 -163 -426 -277 -606 -292 l-54 -4 -910 -913 c-2186
-2194 -2227 -2236 -2248 -2281 -50 -108 -20 -174 160 -353 131 -131 136 -135
186 -141 29 -4 68 -4 87 0 19 3 49 8 65 11 45 7 61 12 179 56 266 98 555 280
714 450 125 133 277 353 365 526 56 108 112 266 102 283 -22 34 31 -14 186
-169 l178 -178 118 123 c65 68 136 142 158 165 22 23 40 40 40 37 0 -4 201
221 246 276 55 68 91 96 118 93 22 -3 26 -8 29 -41 5 -63 -6 -102 -98 -331
-53 -132 -39 -224 46 -294 122 -101 314 -27 339 130 9 53 -10 118 -75 268 -65
150 -72 175 -72 270 1 150 74 348 206 555 233 367 384 661 494 966 26 70 79
254 87 297 3 18 12 63 20 100 28 137 42 442 20 448 -5 2 -41 -24 -80 -57z"/>
<path d="M2661 839 c-86 -179 -99 -228 -75 -284 41 -100 165 -135 244 -68 63
53 75 118 39 213 -18 49 -125 269 -134 279 -2 2 -35 -61 -74 -140z"/>
</g>
</svg>
