<svg id="Capa_1" data-name="Capa 1" xmlns="http://www.w3.org/2000/svg" viewBox="0 0 925.55 1130.71"><defs><style>.cls-1{fill:#fff;}</style></defs><path class="cls-1" d="M462.83,982.44c-63.94,0-127.9.84-191.83-.2-89.85-1.46-156.57-43-200.41-120.9-18.12-32.22-26.08-67.5-26.09-104.5V372.42c0-106.28,78.59-201,183.22-220.17a248.41,248.41,0,0,1,44.13-4.09q191.1-.48,382.2-.18A226,226,0,0,1,881,375.87c0,126.29-.4,252.58.1,378.87.42,106.84-73.72,197.27-172.83,221.41a217.52,217.52,0,0,1-51.69,6.29ZM463,219.75q-93.71,0-187.4,0a188.87,188.87,0,0,0-20.32,1c-79,8.58-138.95,75.34-139,154.66q-.06,189.79,0,379.6a148.32,148.32,0,0,0,.93,17c9.28,79.66,75.58,138.62,155.79,138.62q189.8,0,379.6,0c4.56,0,9.13-.2,13.68-.57,80.39-6.57,142.77-74.24,142.78-154.88q0-189.8-.06-379.59c-.07-46.09-17.66-84.87-51.7-115.77-30.1-27.32-66-40.14-106.59-40.11Q556.85,219.8,463,219.75Z"/><path class="cls-1" d="M462.85,792.82c-125.3,0-226.54-101.69-226.69-227.51C236,441.21,339,336.76,464.27,337.56c123.48.79,227.06,104.19,227,228.06C691.14,690.55,588.37,792.78,462.85,792.82Zm-151-227.59C311.94,649,379.5,717,462.64,717s150.83-68,150.84-151.68c0-82.56-67.94-149.87-151.26-149.84C379.87,415.54,311.82,483.31,311.88,565.23Z"/><path class="cls-1" d="M735.16,341.47c.09,26-21.75,48-47.81,48-26.94,0-48-21-48-47.9A47.39,47.39,0,0,1,687,293.72C713,293.57,735.07,315.46,735.16,341.47Z"/></svg>